<svg width="266" height="266" viewBox="0 0 266 266" fill="none" xmlns="http://www.w3.org/2000/svg">
<g clip-path="url(#clip0_186_61)">
<rect width="265.771" height="265.771" rx="88.2444" fill="#5865F2"/>
<path d="M199.803 71.3961C187.495 65.7398 174.297 61.5726 160.498 59.1858C160.247 59.1397 159.996 59.2548 159.866 59.4851C158.169 62.5088 156.289 66.4536 154.972 69.5541C140.13 67.3285 125.364 67.3285 110.827 69.5541C109.51 66.3846 107.561 62.5088 105.856 59.4851C105.727 59.2625 105.476 59.1474 105.225 59.1858C91.4329 61.5649 78.235 65.7322 65.9199 71.3961C65.8133 71.4421 65.7219 71.519 65.6612 71.6187C40.6275 109.078 33.7697 145.617 37.1339 181.703C37.1491 181.88 37.2481 182.049 37.3851 182.156C53.9016 194.305 69.9007 201.68 85.6027 206.569C85.854 206.646 86.1203 206.554 86.2802 206.346C89.9945 201.266 93.3055 195.909 96.1443 190.276C96.3118 189.946 96.1519 189.554 95.8095 189.424C90.5577 187.429 85.557 184.996 80.7467 182.233C80.3662 182.01 80.3357 181.465 80.6857 181.204C81.698 180.445 82.7106 179.654 83.6771 178.856C83.852 178.71 84.0957 178.679 84.3013 178.771C115.903 193.223 150.116 193.223 181.345 178.771C181.551 178.672 181.795 178.703 181.977 178.848C182.944 179.646 183.956 180.445 184.976 181.204C185.326 181.465 185.303 182.01 184.923 182.233C180.112 185.049 175.112 187.429 169.852 189.416C169.51 189.547 169.358 189.946 169.525 190.276C172.425 195.901 175.736 201.258 179.382 206.339C179.534 206.554 179.808 206.646 180.059 206.569C195.837 201.68 211.836 194.305 228.353 182.156C228.497 182.049 228.589 181.888 228.604 181.711C232.63 139.992 221.86 103.752 200.054 71.6263C200.001 71.519 199.909 71.4421 199.803 71.3961ZM100.864 159.731C91.3492 159.731 83.5096 150.982 83.5096 140.237C83.5096 129.493 91.1971 120.744 100.864 120.744C110.606 120.744 118.369 129.57 118.217 140.237C118.217 150.982 110.53 159.731 100.864 159.731ZM165.027 159.731C155.513 159.731 147.673 150.982 147.673 140.237C147.673 129.493 155.36 120.744 165.027 120.744C174.769 120.744 182.533 129.57 182.381 140.237C182.381 150.982 174.769 159.731 165.027 159.731Z" fill="white"/>
<rect x="69.5574" y="110.046" width="126.657" height="59.1757" fill="white"/>
<path d="M101 126.544L135.021 92.523C139.719 87.8257 147.335 87.8257 152.032 92.523C156.729 97.2203 156.729 104.836 152.032 109.534L126.339 135.227" stroke="#5865F2" stroke-width="6.01415" stroke-linecap="round"/>
<path d="M126 134.862L151.339 109.523C156.036 104.826 163.652 104.826 168.35 109.523L168.526 109.7C173.224 114.398 173.224 122.013 168.526 126.711L137.757 157.48C136.192 159.046 136.192 161.584 137.757 163.15L144.075 169.468" stroke="#5865F2" stroke-width="6.01415" stroke-linecap="round"/>
<path d="M139.083 104.424L113.921 129.585C109.224 134.283 109.224 141.898 113.921 146.596C118.618 151.293 126.234 151.293 130.932 146.596L156.093 121.434" stroke="#5865F2" stroke-width="6.01415" stroke-linecap="round"/>
</g>
<defs>
<clipPath id="clip0_186_61">
<rect width="265.771" height="265.771" fill="white"/>
</clipPath>
</defs>
</svg>
